<?xml version="1.0" standalone="no"?>
<!DOCTYPE svg PUBLIC "-//W3C//DTD SVG 20010904//EN"
 "http://www.w3.org/TR/2001/REC-SVG-20010904/DTD/svg10.dtd">
<svg version="1.0" xmlns="http://www.w3.org/2000/svg"
 width="400.000000pt" height="400.000000pt" viewBox="0 0 400.000000 400.000000"
 preserveAspectRatio="xMidYMid meet">
<metadata>
Created by potrace 1.11, written by Peter Selinger 2001-2013
</metadata>
<g transform="translate(0.000000,400.000000) scale(0.100000,-0.100000)"
fill="#000000" stroke="none">
<path d="M1858 3995 c-1 -2 -40 -6 -86 -9 -46 -4 -111 -13 -145 -22 -34 -8
-75 -17 -92 -20 -77 -14 -266 -76 -302 -99 -13 -9 -23 -13 -23 -10 0 4 -12 0
-27 -8 -16 -8 -57 -29 -93 -47 -36 -18 -77 -40 -92 -49 -92 -56 -125 -77 -142
-93 -11 -10 -25 -18 -32 -18 -7 0 -14 -4 -16 -9 -1 -5 -31 -31 -64 -58 -104
-83 -166 -143 -292 -286 -17 -20 -32 -39 -32 -42 0 -4 -17 -27 -38 -53 -85
-103 -211 -342 -270 -512 -28 -80 -54 -170 -59 -205 -2 -16 -11 -56 -19 -88
-39 -155 -38 -592 1 -742 9 -33 18 -71 20 -85 7 -58 53 -200 95 -295 10 -22
28 -65 41 -95 13 -30 25 -57 28 -60 4 -3 17 -27 31 -55 22 -43 55 -98 102
-169 31 -45 149 -191 195 -239 105 -111 231 -216 366 -305 43 -29 80 -52 82
-52 2 0 29 -15 62 -33 64 -36 206 -99 268 -118 22 -7 45 -17 50 -21 6 -4 26
-10 45 -13 18 -3 37 -8 41 -10 6 -4 104 -27 178 -41 14 -3 28 -7 31 -9 13 -8
196 -19 325 -20 124 0 282 9 335 20 93 18 181 39 215 51 23 8 46 14 53 14 33
0 257 97 380 165 61 33 212 131 222 144 3 3 37 31 75 62 104 84 220 202 300
307 5 7 18 22 28 33 9 10 17 23 17 28 0 5 7 14 15 21 8 7 29 35 45 64 17 28
35 58 40 66 59 91 173 347 195 436 70 283 80 352 80 579 -1 171 -11 307 -29
375 -8 30 -16 69 -19 85 -10 64 -54 202 -92 290 -7 17 -21 50 -31 75 -10 24
-35 75 -56 114 -21 38 -38 70 -38 72 0 2 -48 76 -82 128 -42 61 -159 202 -226
270 -65 67 -223 200 -288 244 -93 62 -170 107 -259 151 -16 8 -42 21 -57 28
-16 8 -28 12 -28 9 0 -3 -15 2 -32 12 -18 10 -53 24 -78 32 -25 7 -50 17 -55
21 -6 5 -26 11 -45 14 -18 3 -36 8 -40 10 -14 9 -239 57 -285 61 -69 5 -392
13 -397 9z"/>
</g>
</svg>
