<?xml version="1.0" encoding="UTF-8" standalone="no"?>
<!DOCTYPE svg PUBLIC "-//W3C//DTD SVG 1.1//EN" "http://www.w3.org/Graphics/SVG/1.1/DTD/svg11.dtd">
<svg version="1.1" xmlns="http://www.w3.org/2000/svg" xmlns:xlink="http://www.w3.org/1999/xlink" preserveAspectRatio="xMidYMid meet" viewBox="0 0 640 640" width="640" height="640"><defs><path d="M283.37 406.79L275.28 389.49L260.58 365.59L256.71 350.26L253.56 332.16L258.97 289.47L244.51 340.28L243.71 357.72L246.91 376.1L257.26 391.06L283.45 423.07L298.24 424.32L283.37 406.79Z" id="c1CfP10kXz"></path><path d="M316.39 347.69L314.23 359.95L306.3 346.25L278.18 281.35L258.71 246.01L247.17 225.1L226.98 197.7L214 181.12L196.69 164.53L180.83 158.04L167.13 158.04L172.9 158.04L206.07 191.21L230.58 225.1L250.77 258.99L272.41 292.89L288.27 321.44L304.14 357.06L308.46 375.81L300.53 398.17L314.23 394.56L320 379.42L325.05 372.21L332.26 357.06L343.8 340.48L348.82 335.74L363.99 321.44L376.39 310.53L396.44 292.89L403.18 284.28L417.35 266.21C414.28 270.5 414.85 269.71 419.06 263.82C421.92 259.81 426.46 253.45 432.68 244.74C434.56 242.11 436.58 239.28 438.76 236.22C439.99 234.51 441.26 232.72 442.59 230.87L460.62 204.19L477.2 176.79L480.81 164.53L480.81 154.43L488.02 144.34L457.73 154.43L432.49 173.18L402.21 202.03L386.34 221.5L363.99 258.99L347.4 296.49L332.26 340.48C326.13 350.21 322.04 356.7 320 359.95C316.94 364.82 320 318.35 320 304.48C320 295.24 322.22 280.57 326.67 260.48" id="amKknB7Lj"></path><path d="M318 283.43L313.51 259.91L307.74 231.23L298.37 209.6L288.27 193.73L291.88 206.71L294.04 231.23L295.48 254.31L295.48 280.27L298.37 294.69L307.74 314.16L314.23 327.14L316.23 348.77" id="b15lZgG68U"></path><path d="M314.23 365.56L319.12 280.8L323.61 266.93L332.98 245.29L344.52 220.06L362.55 186.88L362.55 196.26L360.38 212.12L349.57 240.97L330.1 269.81L324.44 285.68L323.61 308.03L320 361.56L314.23 365.56Z" id="a4RHnrBq0A"></path><path d="" id="a4CkMafv5z"></path><path d="M282.86 445.76L300.17 445.76L323.24 441.43L362.91 429.17L383.26 415.3L416.27 363.55L442.23 319.57L428.53 326.78L360.74 390.96L323.24 422.69L282.86 441.43L282.86 445.76Z" id="l40T27Ie9k"></path><path d="M302.69 394.56L267.36 457.3L241.4 489.75L250.77 496.96L282.5 454.41L313.51 394.56L302.69 394.56Z" id="fHYTN1pjv"></path><path d="M332.63 342.52L367.14 318.3L387.24 301.78C391.17 297.93 393.63 295.53 394.62 294.57C394.62 294.57 395.94 293.1 395.94 293.1C397.37 291.29 400.95 286.77 406.67 279.54L432.63 244.18L444.97 226.52L460.97 202.85L471.3 186.55L477.63 175.18L478.3 170.18L480.97 160.85L479.97 153.85L486.97 144.01L474.97 149.85L459.63 157.18L431.97 186.55L408.3 216.18L393.97 236.18L373.63 268.18L332.63 342.52" id="b1RzCWvU9G"></path><path d="M330.73 420.26L353.4 401.59L382.4 381.59L407.73 354.92L413.73 346.92L426.07 332.59L441.4 320.92L428.07 327.26L402.73 351.59L383.4 367.59L371.4 379.92L350.4 399.26L323.73 423.26L292.07 436.26L330.73 420.26Z" id="d1ZXrkat0m"></path><path d="M331.13 341.35L336.02 334.86L342.25 325.71L384.15 251.22C390.63 240.1 399.58 227.24 411.01 212.63C422.43 198.02 436.33 181.67 452.71 163.58L458.38 157.92L464.38 154.25L486.97 144.34L461.71 152.25L454.04 156.58L431.71 174.25L409.8 193.73L392.38 213.85C389.26 217.85 384.54 224.99 378.21 235.26C377.48 236.44 372.1 245.61 371.39 246.78C365.95 255.72 361.62 264.07 358.38 271.85L344.38 303.6L331.13 341.35" id="aGkB1PRu0"></path></defs><g><g><g><use xlink:href="#c1CfP10kXz" opacity="1" fill="#39681a" fill-opacity="1"></use></g><g><use xlink:href="#amKknB7Lj" opacity="1" fill="#3ac33a" fill-opacity="1"></use></g><g><use xlink:href="#b15lZgG68U" opacity="1" fill="#3f741c" fill-opacity="1"></use></g><g><use xlink:href="#a4RHnrBq0A" opacity="1" fill="#529626" fill-opacity="1"></use></g><g><g><use xlink:href="#a4CkMafv5z" opacity="1" fill-opacity="0" stroke="#000000" stroke-width="1" stroke-opacity="1"></use></g></g><g><use xlink:href="#l40T27Ie9k" opacity="1" fill="#3ac33a" fill-opacity="1"></use></g><g><use xlink:href="#fHYTN1pjv" opacity="1" fill="#3ac33a" fill-opacity="1"></use></g><g><use xlink:href="#b1RzCWvU9G" opacity="1" fill="#52a593" fill-opacity="1"></use></g><g><use xlink:href="#d1ZXrkat0m" opacity="1" fill="#1e9365" fill-opacity="1"></use></g><g><use xlink:href="#aGkB1PRu0" opacity="1" fill="#3e832b" fill-opacity="1"></use></g></g></g></svg>